<svg width="1024" height="1024" viewBox="0 0 1024 1024" xmlns="http://www.w3.org/2000/svg">
  <defs>
    <linearGradient id="sea" x1="0" y1="0" x2="0" y2="1">
      <stop offset="0" stop-color="#bfe6de"/>
      <stop offset="0.55" stop-color="#5cbcb1"/>
      <stop offset="1" stop-color="#2c8078"/>
    </linearGradient>
    <linearGradient id="glass" x1="0" y1="0" x2="0" y2="1">
      <stop offset="0" stop-color="#f4fbf8"/>
      <stop offset="1" stop-color="#cdeae3"/>
    </linearGradient>
    <radialGradient id="sun" cx="0.5" cy="0.4" r="0.6">
      <stop offset="0" stop-color="#ffe4d0"/>
      <stop offset="1" stop-color="#ffb69e"/>
    </radialGradient>
  </defs>

  <!-- full-bleed sea background -->
  <rect width="1024" height="1024" fill="url(#sea)"/>

  <!-- sunset glow -->
  <circle cx="742" cy="300" r="86" fill="url(#sun)" opacity="0.92"/>

  <!-- soft wave band near the bottom -->
  <path d="M0 812 Q170 762 340 812 T680 812 T1024 812 V1024 H0 Z" fill="#ffffff" opacity="0.14"/>
  <path d="M0 872 Q170 828 340 872 T680 872 T1024 872 V1024 H0 Z" fill="#ffffff" opacity="0.18"/>

  <!-- bottle -->
  <g transform="translate(512 528)">
    <!-- body -->
    <rect x="-118" y="-150" width="236" height="470" rx="96" fill="url(#glass)"/>
    <rect x="-118" y="-150" width="236" height="470" rx="96" fill="#7fc9bf" opacity="0.18"/>
    <!-- neck -->
    <rect x="-46" y="-262" width="92" height="130" rx="26" fill="url(#glass)"/>
    <!-- cork -->
    <rect x="-58" y="-300" width="116" height="56" rx="20" fill="#d99a5b"/>
    <rect x="-58" y="-300" width="116" height="26" rx="13" fill="#e6ac71"/>
    <!-- rolled note -->
    <rect x="-70" y="20" width="140" height="210" rx="16" fill="#fbf3df"/>
    <rect x="-40" y="70"  width="80" height="12" rx="6" fill="#cbb488"/>
    <rect x="-40" y="112" width="80" height="12" rx="6" fill="#cbb488"/>
    <rect x="-40" y="154" width="52" height="12" rx="6" fill="#cbb488"/>
    <!-- glass highlight -->
    <rect x="-92" y="-120" width="26" height="360" rx="13" fill="#ffffff" opacity="0.35"/>
  </g>
</svg>
